# xmcd
#
# Track frame offsets:
#	150
#	15632
#	29075
#	44316
#	62361
#	78366
#	94567
#	107947
#	122449
#	138685
#	157656
#	170217
#	186808
#	203752
#	217669
#	236431
#	248974
#	261964
#	278614
#	290487
#	304946
#
# Disc length: 4246 seconds
#
# Revision: 0
# Processed by: cddbd v1.5.2PL0 Copyright (c) Steve Scherf et al.
# Submitted via: audiograbber 1.83.01
#
DISCID=22109415
DTITLE=Various Artist - Promo Ony Country Radio June 2017
DYEAR=2017
DGENRE=Country
TTITLE0=Jerrod Niemann - God Made A Woman
TTITLE1=The Joseph Sisters - Good Life
TTITLE2=Joe Lasher, Jr. - Tap A Little Tail Light
TTITLE3=Walker McGuire - Til Tomorrow
TTITLE4=SaraBeth - I Want It That Way
TTITLE5=Delta Rae - A Long And Happy Life
TTITLE6=High Valley - She's With Me
TTITLE7=Stephanie Quayle - Winnebago
TTITLE8=Eric Church - Round Here Buzz
TTITLE9=Trent Tomlinson - That's What's Working Right Now
TTITLE10=Little Big Town - Happy People
TTITLE11=Thomas Rhett f. Maren Morris - Craving You
TTITLE12=Devin Dawson - All On Me
TTITLE13=Tony Stampley - Daily Bread
TTITLE14=Charlie Worsham - Cut Your Groove
TTITLE15=Parmalee - Sunday Morning
TTITLE16=Rosemary And The Sweet Sound Revival - Barefoot 'N Bling
TTITLE17=Lucas Hoge - Dirty South
TTITLE18=Cannan Smith - Like You That Way
TTITLE19=Kiera - Forever Roam
TTITLE20=Ali Morgan - Crazy
EXTD=
EXTT0=
EXTT1=
EXTT2=
EXTT3=
EXTT4=
EXTT5=
EXTT6=
EXTT7=
EXTT8=
EXTT9=
EXTT10=
EXTT11=
EXTT12=
EXTT13=
EXTT14=
EXTT15=
EXTT16=
EXTT17=
EXTT18=
EXTT19=
EXTT20=
PLAYORDER=
